<svg width="181" height="115" viewBox="0 0 181 115" fill="none" xmlns="http://www.w3.org/2000/svg">
<path d="M35 32.5V75.5V76.5M35 91V76.5M54.5 56.5L37 74.4487M35 76.5L37 74.4487M53.5 91L37 74.4487" stroke="#16146C" stroke-width="8"/>
<path d="M157 57.5L174.5 75.1886L156.5 92" stroke="#16146C" stroke-width="8"/>
<g filter="url(#filter0_d_1_13)">
<path d="M9 102.5V69.5M26 20.5V5H9V69.5M23.5 69.5H9" stroke="#16146C" stroke-width="9" stroke-linecap="square" stroke-linejoin="bevel"/>
</g>
<path d="M59.4584 70.0576C60.503 70.0576 61.4194 70.2617 62.2076 70.6701C63.0052 71.0784 63.6177 71.6624 64.045 72.4221C64.4819 73.1723 64.7003 74.0459 64.7003 75.043C64.7003 76.0401 64.4819 76.9138 64.045 77.664C63.6177 78.4047 63.0052 78.9792 62.2076 79.3875C61.4194 79.7958 60.503 80 59.4584 80H55.9828V70.0576H59.4584ZM59.3872 78.3049C60.4318 78.3049 61.2389 78.0201 61.8087 77.4503C62.3785 76.8805 62.6634 76.0781 62.6634 75.043C62.6634 74.008 62.3785 73.2008 61.8087 72.6215C61.2389 72.0328 60.4318 71.7384 59.3872 71.7384H57.977V78.3049H59.3872ZM73.5288 75.8834C73.5288 76.1683 73.5098 76.4247 73.4718 76.6526H67.7029C67.7504 77.2224 67.9498 77.6687 68.3012 77.9916C68.6525 78.3144 69.0846 78.4759 69.5974 78.4759C70.3381 78.4759 70.8651 78.1578 71.1785 77.5215H73.3294C73.1014 78.2812 72.6646 78.9079 72.0189 79.4017C71.3732 79.886 70.5802 80.1282 69.6401 80.1282C68.8804 80.1282 68.1967 79.962 67.589 79.6297C66.9907 79.2878 66.5206 78.8082 66.1788 78.191C65.8464 77.5737 65.6802 76.8615 65.6802 76.0544C65.6802 75.2377 65.8464 74.5207 66.1788 73.9035C66.5111 73.2862 66.9765 72.8114 67.5747 72.4791C68.173 72.1467 68.8614 71.9805 69.6401 71.9805C70.3903 71.9805 71.0598 72.142 71.6485 72.4648C72.2468 72.7877 72.7074 73.2483 73.0302 73.8465C73.3626 74.4353 73.5288 75.1142 73.5288 75.8834ZM71.4634 75.3137C71.4539 74.8009 71.2687 74.3925 70.9078 74.0887C70.547 73.7753 70.1054 73.6186 69.5831 73.6186C69.0893 73.6186 68.6715 73.7705 68.3297 74.0744C67.9973 74.3688 67.7931 74.7819 67.7172 75.3137H71.4634ZM74.4716 76.0544C74.4716 75.2377 74.6377 74.5255 74.9701 73.9177C75.3025 73.3005 75.763 72.8257 76.3518 72.4933C76.9406 72.1515 77.6148 71.9805 78.3745 71.9805C79.3526 71.9805 80.1597 72.2274 80.796 72.7212C81.4417 73.2055 81.8738 73.8893 82.0922 74.7724H79.9413C79.8274 74.4305 79.6327 74.1646 79.3573 73.9747C79.0914 73.7753 78.7591 73.6756 78.3602 73.6756C77.7905 73.6756 77.3394 73.8845 77.007 74.3023C76.6747 74.7107 76.5085 75.2947 76.5085 76.0544C76.5085 76.8046 76.6747 77.3886 77.007 77.8064C77.3394 78.2147 77.7905 78.4189 78.3602 78.4189C79.1674 78.4189 79.6944 78.058 79.9413 77.3363H82.0922C81.8738 78.191 81.4417 78.87 80.796 79.3733C80.1502 79.8766 79.3431 80.1282 78.3745 80.1282C77.6148 80.1282 76.9406 79.962 76.3518 79.6297C75.763 79.2878 75.3025 78.813 74.9701 78.2052C74.6377 77.588 74.4716 76.871 74.4716 76.0544ZM87.0572 80.1282C86.2975 80.1282 85.6138 79.962 85.006 79.6297C84.3983 79.2878 83.9187 78.8082 83.5674 78.191C83.2255 77.5737 83.0546 76.8615 83.0546 76.0544C83.0546 75.2472 83.2302 74.535 83.5816 73.9177C83.9424 73.3005 84.4315 72.8257 85.0487 72.4933C85.666 72.1515 86.3545 71.9805 87.1142 71.9805C87.8738 71.9805 88.5623 72.1515 89.1796 72.4933C89.7968 72.8257 90.2811 73.3005 90.6325 73.9177C90.9933 74.535 91.1737 75.2472 91.1737 76.0544C91.1737 76.8615 90.9886 77.5737 90.6182 78.191C90.2574 78.8082 89.7636 79.2878 89.1368 79.6297C88.5196 79.962 87.8264 80.1282 87.0572 80.1282ZM87.0572 78.3904C87.418 78.3904 87.7551 78.3049 88.0685 78.134C88.3914 77.9536 88.6478 77.6877 88.8377 77.3363C89.0276 76.985 89.1226 76.5577 89.1226 76.0544C89.1226 75.3042 88.9232 74.7297 88.5243 74.3308C88.135 73.9225 87.6554 73.7183 87.0857 73.7183C86.5159 73.7183 86.0363 73.9225 85.647 74.3308C85.2672 74.7297 85.0772 75.3042 85.0772 76.0544C85.0772 76.8046 85.2624 77.3838 85.6328 77.7922C86.0126 78.191 86.4874 78.3904 87.0572 78.3904ZM92.1238 76.0259C92.1238 75.2282 92.2804 74.5207 92.5938 73.9035C92.9167 73.2862 93.3535 72.8114 93.9043 72.4791C94.4551 72.1467 95.0676 71.9805 95.7418 71.9805C96.2546 71.9805 96.7436 72.0945 97.2089 72.3224C97.6742 72.5408 98.0446 72.8352 98.32 73.2055V69.4593H100.343V80H98.32V78.832C98.0731 79.2213 97.7265 79.5347 97.2801 79.7721C96.8338 80.0095 96.3163 80.1282 95.7275 80.1282C95.0628 80.1282 94.4551 79.9573 93.9043 79.6154C93.3535 79.2735 92.9167 78.794 92.5938 78.1767C92.2804 77.55 92.1238 76.833 92.1238 76.0259ZM98.3342 76.0544C98.3342 75.5701 98.2393 75.157 98.0493 74.8151C97.8594 74.4638 97.603 74.1979 97.2801 74.0174C96.9573 73.8275 96.6107 73.7326 96.2403 73.7326C95.87 73.7326 95.5281 73.8228 95.2147 74.0032C94.9014 74.1836 94.645 74.4495 94.4456 74.8009C94.2556 75.1427 94.1607 75.5511 94.1607 76.0259C94.1607 76.5007 94.2556 76.9185 94.4456 77.2794C94.645 77.6307 94.9014 77.9014 95.2147 78.0913C95.5376 78.2812 95.8795 78.3762 96.2403 78.3762C96.6107 78.3762 96.9573 78.286 97.2801 78.1055C97.603 77.9156 97.8594 77.6497 98.0493 77.3079C98.2393 76.9565 98.3342 76.5387 98.3342 76.0544ZM103.302 71.1686C102.95 71.1686 102.656 71.0594 102.419 70.841C102.191 70.6131 102.077 70.333 102.077 70.0006C102.077 69.6682 102.191 69.3928 102.419 69.1744C102.656 68.9465 102.95 68.8326 103.302 68.8326C103.653 68.8326 103.943 68.9465 104.171 69.1744C104.408 69.3928 104.527 69.6682 104.527 70.0006C104.527 70.333 104.408 70.6131 104.171 70.841C103.943 71.0594 103.653 71.1686 103.302 71.1686ZM104.284 72.1087V80H102.29V72.1087H104.284ZM109.873 73.7468H108.491V80H106.468V73.7468H105.571V72.1087H106.468V71.7099C106.468 70.7413 106.744 70.0291 107.295 69.5733C107.845 69.1175 108.676 68.9038 109.787 68.9323V70.6131C109.303 70.6036 108.966 70.6843 108.776 70.8552C108.586 71.0262 108.491 71.3348 108.491 71.7811V72.1087H109.873V73.7468ZM112.176 71.1686C111.825 71.1686 111.531 71.0594 111.293 70.841C111.065 70.6131 110.951 70.333 110.951 70.0006C110.951 69.6682 111.065 69.3928 111.293 69.1744C111.531 68.9465 111.825 68.8326 112.176 68.8326C112.528 68.8326 112.817 68.9465 113.045 69.1744C113.283 69.3928 113.401 69.6682 113.401 70.0006C113.401 70.333 113.283 70.6131 113.045 70.841C112.817 71.0594 112.528 71.1686 112.176 71.1686ZM113.159 72.1087V80H111.165V72.1087H113.159ZM114.617 76.0544C114.617 75.2377 114.783 74.5255 115.115 73.9177C115.448 73.3005 115.908 72.8257 116.497 72.4933C117.086 72.1515 117.76 71.9805 118.52 71.9805C119.498 71.9805 120.305 72.2274 120.941 72.7212C121.587 73.2055 122.019 73.8893 122.237 74.7724H120.087C119.973 74.4305 119.778 74.1646 119.503 73.9747C119.237 73.7753 118.904 73.6756 118.505 73.6756C117.936 73.6756 117.485 73.8845 117.152 74.3023C116.82 74.7107 116.654 75.2947 116.654 76.0544C116.654 76.8046 116.82 77.3886 117.152 77.8064C117.485 78.2147 117.936 78.4189 118.505 78.4189C119.313 78.4189 119.84 78.058 120.087 77.3363H122.237C122.019 78.191 121.587 78.87 120.941 79.3733C120.295 79.8766 119.488 80.1282 118.52 80.1282C117.76 80.1282 117.086 79.962 116.497 79.6297C115.908 79.2878 115.448 78.813 115.115 78.2052C114.783 77.588 114.617 76.871 114.617 76.0544ZM123.186 76.0259C123.186 75.2282 123.342 74.5207 123.656 73.9035C123.978 73.2862 124.411 72.8114 124.952 72.4791C125.503 72.1467 126.115 71.9805 126.789 71.9805C127.378 71.9805 127.891 72.0992 128.328 72.3366C128.774 72.574 129.13 72.8732 129.396 73.234V72.1087H131.404V80H129.396V78.8462C129.14 79.2166 128.783 79.5252 128.328 79.7721C127.881 80.0095 127.364 80.1282 126.775 80.1282C126.11 80.1282 125.503 79.9573 124.952 79.6154C124.411 79.2735 123.978 78.794 123.656 78.1767C123.342 77.55 123.186 76.833 123.186 76.0259ZM129.396 76.0544C129.396 75.5701 129.301 75.157 129.111 74.8151C128.921 74.4638 128.665 74.1979 128.342 74.0174C128.019 73.8275 127.672 73.7326 127.302 73.7326C126.932 73.7326 126.59 73.8228 126.276 74.0032C125.963 74.1836 125.707 74.4495 125.507 74.8009C125.317 75.1427 125.222 75.5511 125.222 76.0259C125.222 76.5007 125.317 76.9185 125.507 77.2794C125.707 77.6307 125.963 77.9014 126.276 78.0913C126.599 78.2812 126.941 78.3762 127.302 78.3762C127.672 78.3762 128.019 78.286 128.342 78.1055C128.665 77.9156 128.921 77.6497 129.111 77.3079C129.301 76.9565 129.396 76.5387 129.396 76.0544ZM132.839 76.0259C132.839 75.2282 132.996 74.5207 133.309 73.9035C133.632 73.2862 134.069 72.8114 134.62 72.4791C135.171 72.1467 135.783 71.9805 136.457 71.9805C136.97 71.9805 137.459 72.0945 137.924 72.3224C138.39 72.5408 138.76 72.8352 139.035 73.2055V69.4593H141.058V80H139.035V78.832C138.789 79.2213 138.442 79.5347 137.996 79.7721C137.549 80.0095 137.032 80.1282 136.443 80.1282C135.778 80.1282 135.171 79.9573 134.62 79.6154C134.069 79.2735 133.632 78.794 133.309 78.1767C132.996 77.55 132.839 76.833 132.839 76.0259ZM139.05 76.0544C139.05 75.5701 138.955 75.157 138.765 74.8151C138.575 74.4638 138.319 74.1979 137.996 74.0174C137.673 73.8275 137.326 73.7326 136.956 73.7326C136.585 73.7326 136.244 73.8228 135.93 74.0032C135.617 74.1836 135.36 74.4495 135.161 74.8009C134.971 75.1427 134.876 75.5511 134.876 76.0259C134.876 76.5007 134.971 76.9185 135.161 77.2794C135.36 77.6307 135.617 77.9014 135.93 78.0913C136.253 78.2812 136.595 78.3762 136.956 78.3762C137.326 78.3762 137.673 78.286 137.996 78.1055C138.319 77.9156 138.575 77.6497 138.765 77.3079C138.955 76.9565 139.05 76.5387 139.05 76.0544ZM146.51 80.1282C145.75 80.1282 145.066 79.962 144.459 79.6297C143.851 79.2878 143.371 78.8082 143.02 78.191C142.678 77.5737 142.507 76.8615 142.507 76.0544C142.507 75.2472 142.683 74.535 143.034 73.9177C143.395 73.3005 143.884 72.8257 144.501 72.4933C145.119 72.1515 145.807 71.9805 146.567 71.9805C147.327 71.9805 148.015 72.1515 148.632 72.4933C149.25 72.8257 149.734 73.3005 150.085 73.9177C150.446 74.535 150.626 75.2472 150.626 76.0544C150.626 76.8615 150.441 77.5737 150.071 78.191C149.71 78.8082 149.216 79.2878 148.59 79.6297C147.972 79.962 147.279 80.1282 146.51 80.1282ZM146.51 78.3904C146.871 78.3904 147.208 78.3049 147.521 78.134C147.844 77.9536 148.1 77.6877 148.29 77.3363C148.48 76.985 148.575 76.5577 148.575 76.0544C148.575 75.3042 148.376 74.7297 147.977 74.3308C147.588 73.9225 147.108 73.7183 146.538 73.7183C145.969 73.7183 145.489 73.9225 145.1 74.3308C144.72 74.7297 144.53 75.3042 144.53 76.0544C144.53 76.8046 144.715 77.3838 145.085 77.7922C145.465 78.191 145.94 78.3904 146.51 78.3904ZM154.083 73.3337C154.34 72.9159 154.672 72.5883 155.081 72.3509C155.498 72.1135 155.973 71.9948 156.505 71.9948V74.0887H155.978C155.351 74.0887 154.876 74.2359 154.554 74.5302C154.24 74.8246 154.083 75.3374 154.083 76.0686V80H152.089V72.1087H154.083V73.3337Z" fill="#16146C"/>
<defs>
<filter id="filter0_d_1_13" x="0.5" y="0.5" width="34" height="114.5" filterUnits="userSpaceOnUse" color-interpolation-filters="sRGB">
<feFlood flood-opacity="0" result="BackgroundImageFix"/>
<feColorMatrix in="SourceAlpha" type="matrix" values="0 0 0 0 0 0 0 0 0 0 0 0 0 0 0 0 0 0 127 0" result="hardAlpha"/>
<feOffset dy="4"/>
<feGaussianBlur stdDeviation="2"/>
<feComposite in2="hardAlpha" operator="out"/>
<feColorMatrix type="matrix" values="0 0 0 0 0.75 0 0 0 0 0.75 0 0 0 0 0.75 0 0 0 0.46 0"/>
<feBlend mode="normal" in2="BackgroundImageFix" result="effect1_dropShadow_1_13"/>
<feBlend mode="normal" in="SourceGraphic" in2="effect1_dropShadow_1_13" result="shape"/>
</filter>
</defs>
</svg>
